<?xml version="1.0" encoding="utf-8"?>
<!-- Generator: Adobe Illustrator 21.0.2, SVG Export Plug-In . SVG Version: 6.00 Build 0)  -->
<svg version="1.1" id="Layer_1" xmlns="http://www.w3.org/2000/svg" xmlns:xlink="http://www.w3.org/1999/xlink" x="0px" y="0px"
	 viewBox="0 0 688 216" style="enable-background:new 0 0 688 216;" xml:space="preserve">
<style type="text/css">
	.st0{fill:#0C373A;}
	.st1{fill:#66CBDB;}
	.st2{opacity:0.5;}
	.st3{fill:#FFFFFF;}
</style>
<g>
	<path class="st0" d="M308.9,78.5h28.2c3.8,0,7.1,1.4,9.9,4.1c2.7,2.7,4.1,6.1,4.1,10v29.8c0,1.4-0.5,2.6-1.5,3.7s-2.3,1.5-3.7,1.5
		v0.1c1.4,0,2.6,0.5,3.7,1.5s1.5,2.3,1.5,3.7v29.9c0,3.8-1.4,7.1-4.1,9.9c-2.7,2.7-6,4.1-9.9,4.1h-28.2V78.5z M322.9,92.5v28.3h8.9
		c1.5,0,2.8-0.5,3.8-1.5c1-1,1.5-2.3,1.5-3.8V97.8c0-1.5-0.5-2.8-1.5-3.8c-1-1-2.3-1.5-3.8-1.5H322.9z M322.9,134.7v28.2h8.9
		c1.5,0,2.8-0.5,3.8-1.5c1-1,1.5-2.3,1.5-3.8V140c0-1.5-0.5-2.8-1.5-3.8c-1-1-2.3-1.5-3.8-1.5H322.9z"/>
	<path class="st0" d="M364.4,78.5l28.2,0.1c3.8,0,7.1,1.4,9.9,4.1c2.7,2.7,4.1,6,4.1,9.9v28.2c0,5.4-2.3,9.4-6.9,12.1l6.9,44h-13.9
		l-7-42.2h-7.2v42.2h-13.9V78.5z M378.4,92.5v28.4h8.9c1.5,0,2.8-0.5,3.8-1.6c1-1.1,1.5-2.3,1.5-3.7V97.9c0-1.5-0.5-2.8-1.5-3.9
		c-1-1.1-2.3-1.6-3.8-1.6H378.4z"/>
	<path class="st0" d="M433.2,78.4h13.9l21.1,98.5h-13.9l-4.2-21.1l-19.8-0.1l-4.2,21.2h-13.9L433.2,78.4z M440.1,106.5l-7.1,35.3
		h14.2l-7-35.3H440.1z"/>
	<path class="st0" d="M512.6,78.5v13.9l-28.2,70.5h28.2v13.9h-42v-13.9l28.1-70.5h-28.1V78.4L512.6,78.5z"/>
	<path class="st0" d="M526.8,84.6c4.1-4.1,9.1-6.2,14.9-6.2c5.8,0,10.8,2.1,14.9,6.2c4.1,4.1,6.2,9.1,6.2,14.9v56.2
		c0,5.8-2.1,10.8-6.2,14.9s-9.1,6.2-14.9,6.2c-5.8,0-10.8-2.1-14.9-6.2s-6.2-9.1-6.2-14.9V99.5C520.6,93.7,522.6,88.7,526.8,84.6z
		 M546.7,94.5c-1.4-1.4-3-2.1-5-2.1c-2,0-3.6,0.7-5,2.1c-1.4,1.4-2,3-2,5v19.9v16.5v19.8c0,2,0.7,3.6,2,5c1.3,1.4,3,2,5,2
		c2,0,3.6-0.7,5-2c1.4-1.4,2.1-3,2.1-5v-19.8v-16.5V99.5C548.7,97.6,548,95.9,546.7,94.5z"/>
	<path class="st0" d="M586.6,148.7v7.1c0,2,0.7,3.6,2.1,5c1.4,1.4,3,2,5,2c2,0,3.6-0.7,5-2c1.3-1.4,2-3,2-5v-14.1c0-2-0.7-3.6-2-5
		c-1.4-1.3-3-2-5-2c-6.3,0-11.6-2.4-15.8-7.1c-3.6-4-5.4-8.7-5.4-14.1v-14c0-5.8,2.1-10.8,6.2-14.9c4.1-4.1,9.1-6.2,14.9-6.2
		c5.8,0,10.8,2.1,14.9,6.2c4.1,4.1,6.2,9.1,6.2,14.9v7h-1.3h-12.8v-7c0-2-0.7-3.6-2-5c-1.4-1.4-3-2.1-5-2.1c-2,0-3.6,0.7-5,2.1
		c-1.4,1.4-2.1,3-2.1,5v14c0,2,0.7,3.6,2.1,5c1.4,1.4,3,2.1,5,2.1c6.3,0,11.5,2.3,15.7,7c3.6,4,5.4,8.7,5.4,14.1v14.1
		c0,5.8-2.1,10.8-6.2,14.9s-9.1,6.2-14.9,6.2c-5.8,0-10.8-2.1-14.9-6.2c-4.1-4.1-6.2-9.1-6.2-14.9v-7.1H586.6z"/>
</g>
<path class="st1" d="M521.9,34.5l10.8-2.3l3.2,9.6L525.2,44l7.3,10.4l-8.3,6.5l-7.8-10.5l-7.7,10.5l-8.4-6.5l7.3-10.3
	c-1.8-0.5-3.5-0.9-5.3-1.3c-1.8-0.4-3.6-0.7-5.4-1l3.2-9.6l10.7,2.3c0-1.7,0-3.4,0.1-5.1c0-1.7,0.1-3.5,0.2-5.4h10.9V34.5z"/>
<path class="st1" d="M571.5,65.1c0,4.8-3.9,8.6-8.7,8.6s-8.6-3.8-8.6-8.6s3.8-8.6,8.6-8.6C567.8,56.5,571.5,60.5,571.5,65.1z"/>
<path class="st1" d="M602.1,37.9c-5.1,0-9.2-5.1-9.2-11.3c0-6.3,4.1-11.3,9.2-11.3c5.1,0,9.2,5.1,9.2,11.3
	C611.3,33.1,607.1,37.9,602.1,37.9z M602.1,34.7c3.6,0,6.3-3.7,6.3-8.2c0-4.5-2.6-8.1-6.3-8.1s-6.3,3.6-6.3,8.1
	C595.8,31.2,598.6,34.7,602.1,34.7z"/>
<path class="st1" d="M614.3,76.5c4,0,7.8-0.8,11.5-2.3c3.5-1.4,6.7-3.6,9.6-6.6c2.9-2.9,5.1-6.1,6.6-9.7c1.4-3.6,2.2-7.4,2.2-11.6
	c0,4.1,0.7,7.9,2.2,11.6c1.4,3.4,3.6,6.6,6.6,9.7c2.8,2.9,6,5.1,9.7,6.6c3.6,1.6,7.4,2.3,11.5,2.3c-4.1,0-7.9,0.8-11.5,2.3
	c-3.7,1.6-6.9,3.7-9.7,6.6c-3,3.1-5.2,6.3-6.6,9.7c-1.5,3.7-2.2,7.5-2.2,11.6c0-4.2-0.7-8-2.2-11.6c-1.5-3.6-3.7-6.8-6.6-9.7
	c-3-2.9-6.2-5.1-9.6-6.6C622.2,77.3,618.3,76.5,614.3,76.5z M624.8,76.5c2.6,0,5.1,0.5,7.5,1.4c2.2,1,4.3,2.4,6.3,4.3
	c1.9,1.9,3.3,4,4.3,6.3c0.9,2.3,1.4,4.8,1.4,7.6c0-2.7,0.5-5.2,1.4-7.6c0.9-2.2,2.3-4.3,4.3-6.3c1.8-1.9,3.9-3.3,6.2-4.3
	c2.3-1,4.8-1.4,7.5-1.4c-2.7,0-5.2-0.5-7.5-1.5c-2.3-1-4.4-2.4-6.2-4.3c-2-2-3.5-4.1-4.3-6.3c-1-2.4-1.4-4.9-1.4-7.6
	c0,2.7-0.5,5.2-1.4,7.6c-1,2.3-2.4,4.4-4.3,6.3c-1.9,1.9-4,3.3-6.3,4.3C629.9,76,627.4,76.5,624.8,76.5z"/>
<g>
	<g>
		<path class="st0" d="M240.7,146.5c23.6-33.6,36.5-65.1,37.7-88.8c2.2,0.5,5.4,0.8,7.5,0.8c-2.5,24.9-15.3,56.2-38.2,89.6
			c0.9,0.9,1.2,2,0.7,2.9L240.7,146.5z"/>
	</g>
	<g>
		<path class="st1" d="M237.7,75.6c-12.9-13.9-32.6-23.4-59.3-25.7c-3.7-0.4-7.5-0.6-11.5-0.6c-0.3,0-0.5,0-0.8,0
			c-0.3,0-0.5,0-0.8,0c-3.9,0-7.8,0.2-11.5,0.6c-26.8,2.3-46.4,11.8-59.3,25.7c-13.1,14.1-19.4,32.7-19.4,53.2
			c0,7.5,0.3,14.2,1.3,19.9c-5.5,1.2-9.9,6.4-9.1,13.4c0.3,2.3,1.3,4.5,3,6.1c5.2,4.9,12.2,4.5,16.5,0.8
			c11.6,10.3,34.6,14.6,79.3,15.3c82.7-1.3,90.9-15.1,90.9-55.5C257.1,108.3,250.8,89.7,237.7,75.6z"/>
		<path class="st1" d="M58.8,154.7c-4.8-1.5-10,2.3-9.3,8.1c0.2,1.4,0.8,2.8,1.8,3.8c4.4,4.2,10.8,2.1,12.4-2.8
			C64.8,160.1,62.8,155.9,58.8,154.7z"/>
		<path class="st1" d="M41.4,151c-2.2-0.7-4.5,1.1-4.2,3.7c0.1,0.7,0.4,1.3,0.8,1.7c2,1.9,4.9,1,5.6-1.3
			C44.1,153.5,43.2,151.6,41.4,151z"/>
	</g>
	<g class="st2">
		<path class="st0" d="M151.4,97.4v50.5c0,0,6.2-0.9,9.6-1.9c20-6,37.2-24.8,37.9-48.6H151.4z"/>
	</g>
	<g>
		<path class="st0" d="M93.6,119.6c0-9.1,3.9-15.8,11.8-20.4c3.9-2.3,7.8-3.4,11.8-3.4c3.9,0,7.8,1.1,11.8,3.4
			c7.9,4.5,11.8,11.3,11.8,20.4c0,9.1-3.9,15.8-11.8,20.4c-3.9,2.3-7.9,3.4-11.8,3.4c-3.9,0-7.9-1.1-11.8-3.4
			C97.5,135.5,93.6,128.7,93.6,119.6z"/>
	</g>
	<g>
		<path class="st0" d="M202.8,119.6c0-9.1,3.9-15.8,11.8-20.4c3.9-2.3,7.8-3.4,11.8-3.4c3.9,0,7.8,1.1,11.8,3.4
			c7.9,4.5,11.8,11.3,11.8,20.4c0,9.1-3.9,15.8-11.8,20.4c-3.9,2.3-7.9,3.4-11.8,3.4c-3.9,0-7.9-1.1-11.8-3.4
			C206.7,135.5,202.8,128.7,202.8,119.6z"/>
	</g>
	<path class="st3" d="M116.9,100.5c-3.1,0-6.3,0.9-9.4,2.7c-6.3,3.6-9.4,9-9.4,16.3h18.8V100.5z"/>
	<path class="st3" d="M226.5,100.5c-3.1,0-6.3,0.9-9.4,2.7c-6.3,3.6-9.4,9-9.4,16.3h18.8V100.5z"/>
	<g>
		<path class="st0" d="M42.2,141.2c23.6-33.6,35-62.3,36.3-86c2.2,0.5,5.4,0.8,7.5,0.8c-2.5,24.9-15.3,56.2-38.2,89.6"/>
	</g>
	<g class="st2">
		<path class="st0" d="M166.2,179.3c-44.7,1.9-67.7-4.1-79.3-14.3c-4.3,3.7-11.3,4.2-16.5-0.8c-1.6-1.5-2.6-3.5-2.9-5.7
			c-0.2,1.1-0.2,2.3-0.1,3.6c0.3,2.3,1.3,4.5,3,6.1c5.2,4.9,12.2,4.5,16.5,0.8c11.6,10.3,34.6,14.6,79.3,15.3
			c82.7-1.3,90.9-15.1,90.9-55.5c0-0.3,0-0.6,0-1C256.6,165.8,244,176,166.2,179.3z"/>
		<path class="st0" d="M51.3,162.6c-0.8-0.8-1.4-1.7-1.6-2.8c-0.2,0.9-0.3,1.9-0.2,3c0.2,1.4,0.8,2.8,1.8,3.8
			c4.4,4.2,10.8,2.1,12.4-2.8c0.4-1.4,0.4-2.8,0-4.1c0,0,0,0.1,0,0.1C62.1,164.7,55.7,166.8,51.3,162.6z"/>
		<path class="st0" d="M38,152.4c-0.1-0.1-0.1-0.2-0.2-0.2c-0.5,0.7-0.7,1.5-0.6,2.5c0.1,0.7,0.4,1.3,0.8,1.7c2,1.9,4.9,1,5.6-1.3
			c0.3-1,0.1-2.1-0.5-3C42,153.6,39.7,154,38,152.4z"/>
		<path class="st0" d="M257.1,127.8c0-1,0-2,0-3"/>
	</g>
</g>
</svg>
